<svg xmlns="http://www.w3.org/2000/svg" viewBox="0 0 200 200" role="img" aria-labelledby="sun-title">
  <title id="sun-title">Sun</title>
  <g fill="#F6B800">
    <path d="M100 8 L104 60 L96 60Z"/>
    <path d="M135.21 15 L119 64.58 L111.61 61.51Z"/>
    <path d="M165.05 34.95 L131.11 74.54 L125.46 68.89Z"/>
    <path d="M185 64.79 L138.49 88.39 L135.42 81Z"/>
    <path d="M192 100 L140 104 L140 96Z"/>
    <path d="M185 135.21 L135.42 119 L138.49 111.61Z"/>
    <path d="M165.05 165.05 L125.46 131.11 L131.11 125.46Z"/>
    <path d="M135.21 185 L111.61 138.49 L119 135.42Z"/>
    <path d="M100 192 L96 140 L104 140Z"/>
    <path d="M64.79 185 L81 135.42 L88.39 138.49Z"/>
    <path d="M34.95 165.05 L68.89 125.46 L74.54 131.11Z"/>
    <path d="M15 135.21 L61.51 111.61 L64.58 119Z"/>
    <path d="M8 100 L60 96 L60 104Z"/>
    <path d="M15 64.79 L64.58 81 L61.51 88.39Z"/>
    <path d="M34.95 34.95 L74.54 68.89 L68.89 74.54Z"/>
    <path d="M64.79 15 L88.39 61.51 L81 64.58Z"/>
    <circle cx="100" cy="100" r="34"/>
  </g>
</svg>
